<svg width="26" height="25" viewBox="0 0 26 25" fill="none" xmlns="http://www.w3.org/2000/svg">
<g filter="url(#filter0_d_2506_3948)">
<path d="M10 11.25V14.25L4 9L10 3.75V6.75L16 6.75V11.25L10 11.25ZM11.5 3.75V3.81225C12.3835 3.2985 13.4065 3 14.5 3C17.8082 3 20.5 5.69175 20.5 9C20.5 12.3082 17.8082 15 14.5 15C13.4065 15 12.3835 14.7015 11.5 14.1877V15.8715C12.4195 16.2735 13.4327 16.5 14.5 16.5C18.6415 16.5 22 13.1422 22 9C22 4.85775 18.6415 1.5 14.5 1.5C13.4327 1.5 12.4195 1.7265 11.5 2.1285V3.75Z" fill="#b19c5b"/>
</g>
<defs>
<filter id="filter0_d_2506_3948" x="0" y="0" width="26" height="26" filterUnits="userSpaceOnUse" color-interpolation-filters="sRGB">
<feFlood flood-opacity="0" result="BackgroundImageFix"/>
<feColorMatrix in="SourceAlpha" type="matrix" values="0 0 0 0 0 0 0 0 0 0 0 0 0 0 0 0 0 0 127 0" result="hardAlpha"/>
<feOffset dy="4"/>
<feGaussianBlur stdDeviation="2"/>
<feComposite in2="hardAlpha" operator="out"/>
<feColorMatrix type="matrix" values="0 0 0 0 0 0 0 0 0 0 0 0 0 0 0 0 0 0 0.25 0"/>
<feBlend mode="normal" in2="BackgroundImageFix" result="effect1_dropShadow_2506_3948"/>
<feBlend mode="normal" in="SourceGraphic" in2="effect1_dropShadow_2506_3948" result="shape"/>
</filter>
</defs>
</svg>
